<?xml version="1.0" encoding="UTF-8"?><svg id="Layer_1" xmlns="http://www.w3.org/2000/svg" viewBox="0 0 28.34 28.34"><defs><style>.cls-1{fill:#fff;}.cls-1,.cls-2{fill-rule:evenodd;}.cls-3{fill:#999;}</style></defs><path class="cls-1" d="M14.17,28.33C6.36,28.33,0,21.98,0,14.17S6.36,0,14.17,0s14.16,6.35,14.16,14.16-6.35,14.16-14.16,14.16Z"/><path class="cls-3" d="M14.17,0C21.99,0,28.33,6.35,28.33,14.17h0c0,7.82-6.34,14.16-14.16,14.16h0C6.35,28.33,0,21.99,0,14.17H0C0,6.35,6.35,0,14.17,0h0M14.17,0c-3.78,0-7.34,1.47-10.02,4.15C1.47,6.83,0,10.38,0,14.17s1.47,7.34,4.15,10.02c2.68,2.68,6.23,4.15,10.02,4.15s7.34-1.47,10.02-4.15,4.15-6.23,4.15-10.02-1.47-7.34-4.15-10.02C21.51,1.47,17.95,0,14.17,0h0Z"/><path class="cls-2" d="M6.25,6.83c0,.57.47,1.03,1.04,1.03h8.62c.98,0,1.79.3,2.43.9.64.6.95,1.37.95,2.32,0,.87-.32,1.59-.95,2.14-.64.54-1.44.81-2.43.81h-3.75c-.57,0-1.04.46-1.04,1.03s.47,1.03,1.04,1.03h4.14l3.73,5.92c.23.36.56.54.98.54.46,0,.79-.18.98-.54.19-.37.15-.76-.11-1.18l-3.32-5.27c.9-.4,1.6-.99,2.12-1.76.52-.79.78-1.69.78-2.72s-.24-1.96-.72-2.74c-.46-.79-1.11-1.4-1.95-1.84-.84-.46-1.8-.69-2.88-.69H7.29c-.57,0-1.04.46-1.04,1.03Z"/></svg>